<?xml version="1.0" encoding="UTF-8"?> <svg xmlns="http://www.w3.org/2000/svg" width="197" height="38" viewBox="0 0 197 38" fill="none"><g clip-path="url(#clip0_257_7894)"><path d="M117.815 11.7857V12.6504C117.815 13.5691 117.437 14.4067 116.833 15.0147C116.23 15.6182 115.392 15.9965 114.469 15.9965H107.781C106.863 15.9965 106.025 15.6227 105.422 15.0147V15.0102C104.818 14.4067 104.44 13.5691 104.44 12.6504V5.96719C104.44 5.04847 104.818 4.21533 105.422 3.60736V3.60285C106.025 2.99939 106.863 2.62109 107.781 2.62109H114.469C115.383 2.62109 116.221 2.99488 116.829 3.60285L116.833 3.60736C117.437 4.21533 117.815 5.04847 117.815 5.96719V6.83636H115.586V5.96719C115.586 5.66095 115.464 5.38173 115.262 5.17908L115.257 5.17457C115.054 4.97642 114.78 4.85032 114.469 4.85032H107.781C107.475 4.85032 107.196 4.97642 106.993 5.17908H106.989C106.786 5.38173 106.664 5.66095 106.664 5.96719V12.6549C106.664 12.9611 106.791 13.2403 106.989 13.443H106.993C107.196 13.6456 107.475 13.7717 107.781 13.7717H114.469C114.775 13.7717 115.054 13.6456 115.257 13.443C115.46 13.2403 115.586 12.9611 115.586 12.6549V11.7902H117.815V11.7857ZM133.361 11.7857V12.6504C133.361 13.5691 132.987 14.4067 132.379 15.0147C131.776 15.6182 130.938 15.9965 130.02 15.9965H123.332C122.413 15.9965 121.576 15.6227 120.972 15.0147C120.369 14.4112 119.99 13.5736 119.99 12.6504V5.96719C119.99 5.04847 120.364 4.21083 120.972 3.60285C121.576 2.99939 122.413 2.62109 123.332 2.62109H130.02C130.934 2.62109 131.771 2.99939 132.379 3.60285C132.983 4.20632 133.361 5.04397 133.361 5.96268V6.83186H131.132V5.96268C131.132 5.65645 131.006 5.37723 130.803 5.17457V5.17007C130.605 4.97192 130.326 4.84582 130.02 4.84582H123.332C123.026 4.84582 122.746 4.97192 122.548 5.17457C122.346 5.37723 122.22 5.65645 122.22 5.96268V12.6549C122.22 12.9611 122.346 13.2403 122.548 13.443C122.751 13.6456 123.03 13.7717 123.332 13.7717H130.02C130.326 13.7717 130.605 13.6456 130.803 13.443C131.006 13.2403 131.132 12.9611 131.132 12.6549V11.7902H133.361V11.7857ZM146.678 10.4256H137.761V13.7717H148.907V15.992H135.536V2.6256H148.907V4.85482H137.761V8.19641H146.678V10.4256ZM153.307 11.7857V12.6504C153.307 12.9566 153.433 13.2358 153.631 13.4385L153.636 13.443C153.834 13.6411 154.113 13.7672 154.424 13.7672H161.112C161.422 13.7672 161.697 13.6411 161.9 13.443V13.4385C162.102 13.2358 162.229 12.9566 162.229 12.6504V12.1415C162.229 11.7857 162.102 11.4659 161.886 11.2273C161.67 10.9886 161.368 10.8219 161.017 10.7859L154.28 10.0383C153.37 9.93927 152.573 9.50243 152.001 8.86293C151.429 8.22344 151.087 7.38128 151.087 6.47158V5.96268C151.087 5.04397 151.461 4.21083 152.069 3.60285H152.064C152.668 2.99939 153.505 2.62109 154.419 2.62109H161.107C162.026 2.62109 162.859 2.99939 163.467 3.60285H163.472C164.075 4.20632 164.453 5.04397 164.453 5.96268V6.83186H162.224V5.96268C162.224 5.65645 162.098 5.37723 161.895 5.17457V5.17007C161.697 4.97192 161.418 4.84582 161.107 4.84582H154.424C154.118 4.84582 153.839 4.97192 153.636 5.17007C153.433 5.37273 153.312 5.65194 153.312 5.95818V6.46707C153.312 6.82285 153.438 7.1426 153.654 7.38128C153.87 7.61997 154.172 7.7866 154.523 7.82263L161.26 8.5702C162.17 8.66928 162.967 9.10612 163.539 9.74562C164.111 10.3851 164.453 11.2273 164.453 12.137V12.6459C164.453 13.5646 164.079 14.4022 163.472 15.0102L163.467 15.0057C162.859 15.6137 162.026 15.9875 161.107 15.9875H154.424C153.51 15.9875 152.672 15.6137 152.069 15.0057L152.064 15.0012C151.461 14.3932 151.082 13.5601 151.082 12.6414V11.7767H153.307V11.7857ZM75.5814 11.7857V12.6504C75.5814 12.9566 75.7075 13.2358 75.9056 13.4385L75.9101 13.443C76.1083 13.6411 76.3875 13.7672 76.6983 13.7672H83.3859C83.6967 13.7672 83.9714 13.6411 84.1741 13.443V13.4385C84.3767 13.2358 84.5028 12.9566 84.5028 12.6504V12.1415C84.5028 11.7857 84.3767 11.4659 84.1605 11.2273C83.9444 10.9886 83.6426 10.8219 83.2914 10.7859L76.5541 10.0383C75.6444 9.93927 74.8473 9.50243 74.2754 8.86293C73.7034 8.22344 73.3567 7.38128 73.3567 6.47158V5.96268C73.3567 5.04397 73.7305 4.21083 74.3384 3.60285C74.9419 2.99939 75.7795 2.62109 76.6983 2.62109H83.3859C84.3047 2.62109 85.1378 2.99939 85.7458 3.60285C86.3537 4.20632 86.7275 5.04397 86.7275 5.96268V6.83186H84.4983V5.96268C84.4983 5.65645 84.3722 5.37723 84.1695 5.17457V5.17007C83.9714 4.97192 83.6922 4.84582 83.3814 4.84582H76.6938C76.3875 4.84582 76.1083 4.97192 75.9056 5.17007C75.703 5.37273 75.5814 5.65194 75.5814 5.95818V6.46707C75.5814 6.82285 75.7075 7.1426 75.9237 7.38128C76.1398 7.61997 76.4416 7.7866 76.7928 7.82263L83.53 8.5702C84.4398 8.66928 85.2369 9.10612 85.8088 9.74562C86.3808 10.3851 86.723 11.2273 86.723 12.137V12.6459C86.723 13.5646 86.3492 14.4022 85.7413 15.0102V15.0057C85.1333 15.6137 84.3001 15.9875 83.3814 15.9875H76.6938C75.7795 15.9875 74.9419 15.6137 74.3339 15.0057L74.3294 15.0012C73.726 14.3932 73.3477 13.5601 73.3477 12.6414V11.7767H75.5814V11.7857ZM115.59 27.0615V22.1077C115.59 21.7744 115.455 21.4727 115.235 21.252C115.014 21.0314 114.712 20.8963 114.379 20.8963H107.88C107.547 20.8963 107.245 21.0314 107.025 21.252C106.804 21.4727 106.669 21.7744 106.669 22.1077V27.0615H115.59ZM141.107 32.0469V20.8963H135.532V18.6715H148.903V20.8963H143.327V32.0424H141.107V32.0469ZM91.1274 25.769H98.8284H98.8419C99.1662 25.7645 99.4634 25.6294 99.6796 25.4133C99.9002 25.1926 100.035 24.8909 100.035 24.5576V22.1077C100.035 21.7744 99.9002 21.4727 99.6796 21.252C99.4589 21.0314 99.1572 20.8963 98.8239 20.8963H91.1229V25.769H91.1274ZM100.04 32.0469V29.2052C100.04 28.8719 99.9047 28.5702 99.6841 28.354C99.4679 28.1379 99.1707 28.0028 98.8464 27.9983H92.3389H91.1274V32.0469H88.9027V18.6715H98.8284C99.7741 18.6715 100.634 19.0588 101.256 19.6803C101.877 20.3018 102.265 21.162 102.265 22.1077V24.5576C102.265 25.4493 101.918 26.2689 101.355 26.8814C101.918 27.4939 102.265 28.309 102.265 29.2052V32.0469H100.04ZM131.132 27.9938H122.215V32.0424H119.99V18.667H133.361V20.8918H122.215V25.7645H131.132V27.9938ZM86.7185 27.8226V28.6873C86.7185 29.606 86.3447 30.4437 85.7368 31.0471C85.1333 31.6506 84.2956 32.0289 83.3769 32.0289H76.6983C75.7795 32.0289 74.9419 31.6551 74.3384 31.0471V31.0426C73.735 30.4392 73.3567 29.606 73.3567 28.6873V22.0131C73.3567 21.0989 73.7305 20.2613 74.3384 19.6578V19.6533C74.9419 19.0498 75.7795 18.6715 76.6983 18.6715H83.3769C84.2911 18.6715 85.1243 19.0453 85.7323 19.6533L85.7368 19.6578C86.3402 20.2658 86.7185 21.0989 86.7185 22.0131V22.8778H84.4938V22.0131C84.4938 21.7069 84.3677 21.4277 84.1695 21.2295L84.165 21.225C83.9669 21.0269 83.6877 20.9008 83.3814 20.9008H76.7028C76.3965 20.9008 76.1218 21.0269 75.9192 21.2295V21.225C75.7165 21.4277 75.5949 21.7069 75.5949 22.0131V28.6918C75.5949 28.998 75.721 29.2773 75.9192 29.4799C76.1218 29.6826 76.401 29.8087 76.7028 29.8087H83.3814C83.6877 29.8087 83.9624 29.6826 84.165 29.4799C84.3677 29.2773 84.4938 28.998 84.4938 28.6963V27.8316H86.7185V27.8226ZM104.444 32.0469V22.1077C104.444 21.162 104.832 20.3018 105.453 19.6803C106.075 19.0588 106.935 18.6715 107.88 18.6715H114.379C115.325 18.6715 116.185 19.0588 116.806 19.6803C117.428 20.3018 117.815 21.162 117.815 22.1077V27.0615H117.833V29.2863H117.815V32.0424H115.59V29.2863H106.669V32.0424H104.444V32.0469ZM168.853 11.7857V12.6504C168.853 12.9566 168.979 13.2358 169.177 13.4385L169.182 13.443C169.38 13.6411 169.659 13.7672 169.97 13.7672H176.658C176.964 13.7672 177.243 13.6411 177.446 13.443V13.4385C177.648 13.2358 177.775 12.9566 177.775 12.6504V12.1415C177.775 11.7857 177.648 11.4659 177.432 11.2273C177.216 10.9886 176.914 10.8219 176.563 10.7859L169.826 10.0383C168.916 9.93927 168.119 9.50243 167.547 8.86293C166.975 8.22344 166.633 7.38128 166.633 6.47158V5.96268C166.633 5.04397 167.007 4.21083 167.615 3.60285H167.61C168.214 2.99939 169.051 2.62109 169.97 2.62109H176.658C177.572 2.62109 178.41 2.99939 179.018 3.60285H179.022C179.626 4.20632 180.004 5.04397 180.004 5.96268V6.83186H177.775V5.96268C177.775 5.65645 177.648 5.37723 177.446 5.17457V5.17007C177.248 4.97192 176.968 4.84582 176.658 4.84582H169.97C169.664 4.84582 169.385 4.97192 169.182 5.17007C168.979 5.37273 168.858 5.65194 168.858 5.95818V6.46707C168.858 6.82285 168.984 7.1426 169.2 7.38128C169.416 7.61997 169.718 7.7866 170.069 7.82263L176.806 8.5702C177.716 8.66928 178.513 9.10612 179.085 9.74562C179.657 10.3851 179.999 11.2273 179.999 12.137V12.6459C179.999 13.5646 179.621 14.4022 179.018 15.0102L179.013 15.0057C178.405 15.6137 177.567 15.9875 176.653 15.9875H169.966C169.051 15.9875 168.214 15.6137 167.606 15.0057L167.601 15.0012C166.998 14.3932 166.619 13.5601 166.619 12.6414V11.7767H168.853V11.7857ZM91.1229 2.6256V12.6549H91.1274C91.1274 12.9611 91.2535 13.2403 91.4562 13.443V13.4475C91.6543 13.6456 91.9336 13.7717 92.2398 13.7717H98.9275C99.2337 13.7717 99.5129 13.6456 99.7111 13.443H99.7156C99.9183 13.2403 100.04 12.9611 100.04 12.6549H100.044V2.6256H102.265V12.6549H102.269C102.269 13.5736 101.895 14.4067 101.287 15.0102V15.0147C100.684 15.6182 99.8462 15.9965 98.9275 15.9965H92.2398C91.3256 15.9965 90.4879 15.6182 89.88 15.0147V15.0192C89.272 14.4157 88.8982 13.5781 88.8982 12.6594H88.9027V2.6256H91.1229Z" fill="black"></path><path fill-rule="evenodd" clip-rule="evenodd" d="M32.5916 12.254L42.756 2.08962C44.062 0.783607 45.7598 0.0855663 47.4802 0H48.1962C49.9166 0.0855663 51.6144 0.779104 52.9204 2.08962L63.0848 12.254C65.8814 15.0507 65.8814 19.6217 63.0848 22.4184L52.9159 32.5782C51.5198 33.9743 49.6779 34.6769 47.836 34.6769C45.994 34.6769 44.1521 33.9788 42.756 32.5782L32.5916 22.4139C29.795 19.6217 29.795 15.0462 32.5916 12.254Z" fill="#9C9D9D"></path><path fill-rule="evenodd" clip-rule="evenodd" d="M2.09412 12.2495L12.263 2.08512C13.569 0.779104 15.2623 0.0855663 16.9827 0H17.7077C19.4281 0.0855663 21.1214 0.779104 22.4274 2.08512L32.5873 12.2495C35.3839 15.0462 35.3839 19.6172 32.5873 22.4139L22.4229 32.5782C21.0268 33.9788 19.1849 34.6769 17.3429 34.6769C15.501 34.6769 13.6591 33.9788 12.263 32.5782L2.09412 22.4139C0.698041 21.0178 0 19.1759 0 17.3339C0 15.492 0.698041 13.6501 2.09412 12.2495Z" fill="#00B1EB"></path><path d="M56.8199 20.9273V21.909C56.8199 23.1205 56.3245 24.2238 55.5274 25.0209C54.7303 25.8181 53.6269 26.3134 52.4155 26.3134H43.2599C42.0484 26.3134 40.9451 25.8181 40.148 25.0209C39.3509 24.2238 38.8555 23.1205 38.8555 21.909V12.7579C38.8555 11.542 39.3509 10.4431 40.148 9.64602C40.9451 8.8489 42.0484 8.35352 43.2599 8.35352H52.4155C53.6269 8.35352 54.7303 8.8489 55.5274 9.64602C56.3245 10.4431 56.8199 11.5465 56.8199 12.7579V13.7397H54.1088V12.7579C54.1088 12.2941 53.9196 11.8707 53.6089 11.56C53.3027 11.2538 52.8793 11.0601 52.411 11.0601H43.2599C42.796 11.0601 42.3727 11.2493 42.062 11.56C41.7557 11.8662 41.5621 12.2896 41.5621 12.7579V21.9135C41.5621 22.3774 41.7512 22.8007 42.062 23.1115C42.3682 23.4177 42.7915 23.6113 43.2599 23.6113H52.4155C52.8793 23.6113 53.3027 23.4222 53.6134 23.1115C53.9196 22.8052 54.1133 22.3819 54.1133 21.9135V20.9318H56.8199V20.9273Z" fill="white"></path><path d="M11.0699 20.9279V21.9096C11.0699 22.3735 11.259 22.7968 11.5698 23.1075C11.876 23.4138 12.2993 23.6074 12.7677 23.6074H21.9233C22.3872 23.6074 22.8105 23.4183 23.1212 23.1075C23.4275 22.8013 23.6211 22.378 23.6211 21.9096V21.2161C23.6211 20.6892 23.4275 20.2118 23.1077 19.8515C22.788 19.4912 22.3331 19.2481 21.8107 19.1895L12.5876 18.1627C11.3851 18.0276 10.3313 17.4557 9.57472 16.6135C8.81813 15.7669 8.36328 14.659 8.36328 13.4476V12.754C8.36328 11.5426 8.85867 10.4392 9.65578 9.64211C10.4529 8.84499 11.5563 8.34961 12.7677 8.34961H21.9233C23.1347 8.34961 24.2381 8.84499 25.0352 9.64211C25.8323 10.4392 26.3277 11.5426 26.3277 12.754V13.7358H23.6166V12.754C23.6166 12.2902 23.4275 11.8668 23.1167 11.5561C22.8105 11.2499 22.3871 11.0562 21.9188 11.0562H12.7677C12.3038 11.0562 11.8805 11.2454 11.5698 11.5561C11.2635 11.8623 11.0699 12.2857 11.0699 12.754V13.4476C11.0699 13.9745 11.2635 14.4518 11.5833 14.8121C11.903 15.1724 12.3579 15.4156 12.8803 15.4741L22.1034 16.5009C23.3059 16.636 24.3597 17.208 25.1163 18.0501C25.8729 18.8968 26.3277 20.0091 26.3277 21.2161V21.9096C26.3277 23.1211 25.8323 24.2244 25.0352 25.0215C24.2381 25.8186 23.1347 26.314 21.9233 26.314H12.7677C11.5563 26.314 10.4529 25.8186 9.65578 25.0215C8.85867 24.2244 8.36328 23.1211 8.36328 21.9096V20.9279H11.0699Z" fill="white"></path><path fill-rule="evenodd" clip-rule="evenodd" d="M32.5916 12.2539C35.3883 15.0506 35.3883 19.6216 32.5916 22.4183C29.795 19.6216 29.795 15.0461 32.5916 12.2539Z" fill="#1993CC"></path></g><defs><clipPath id="clip0_257_7894"><rect width="180" height="34.6769" fill="white"></rect></clipPath></defs></svg> 